Coordinates
version=1
nRows=9
nColumns=24
inDegrees=yes

Units are S.I. units (second, meters, Newtons, ...)
Angles are in degrees.

endheader
time	pelvis_tilt	pelvis_list	pelvis_rotation	pelvis_tx	pelvis_ty	pelvis_tz	hip_flexion_r	hip_adduction_r	hip_rotation_r	knee_angle_r	ankle_angle_r	subtalar_angle_r	mtp_angle_r	hip_flexion_l	hip_adduction_l	hip_rotation_l	knee_angle_l	ankle_angle_l	subtalar_angle_l	mtp_angle_l	lumbar_extension	lumbar_bending	lumbar_rotation
      1.07483333	     -0.88342348	      1.44158939	      0.85460786	      0.54985862	      1.01661440	      0.32152345	      9.45796375	      2.60714220	      5.06791136	    -14.77259057	      5.52060500	    -13.24021693	      5.99360596	     16.47966792	      1.31291972	     -4.63922114	    -69.53088066	      4.17570507	     -7.41543424	      5.46891670	     -0.06830885	     -0.47939976	      3.27826615
      1.07900000	     -0.87346281	      1.50741381	      0.56445681	      0.55451851	      1.01717203	      0.32190423	      9.02860845	      2.55241394	      5.22764898	    -14.46859855	      5.57776617	    -13.07051096	      6.06190494	     17.02133980	      1.33988241	     -4.91982846	    -69.28995046	      4.34187037	     -7.60901024	      5.42104183	     -0.10716700	     -0.54284027	      3.39194949
      1.08316667	     -0.84662185	      1.59100814	      0.28451424	      0.55916302	      1.01774561	      0.32224898	      8.58002550	      2.47130590	      5.38192974	    -14.16371978	      5.67147271	    -12.90040412	      6.16134691	     17.53195459	      1.39388732	     -5.18051809	    -68.99851522	      4.45863799	     -7.85724883	      5.34442572	     -0.16662745	     -0.62443797	      3.63251460
      1.08733333	     -0.83940273	      1.67160619	      0.01043776	      0.56379819	      1.01825848	      0.32258773	      8.15904952	      2.38949539	      5.52816951	    -13.86951462	      5.75907951	    -12.72345487	      6.25759484	     18.05626129	      1.43866296	     -5.43537029	    -68.68052588	      4.58365170	     -8.08771015	      5.26575436	     -0.19976741	     -0.70186881	      3.82497610
      1.09150000	     -0.84081478	      1.71874580	     -0.22030758	      0.56843376	      1.01871226	      0.32286424	      7.72886946	      2.33557256	      5.64529497	    -13.54130555	      5.84526619	    -12.57998039	      6.28085039	     18.59317738	      1.45450275	     -5.63089302	    -68.35585502	      4.74873072	     -8.22769725	      5.24808251	     -0.20624635	     -0.73770523	      3.86426847
      1.09566667	     -0.78767468	      1.82458546	     -0.51523334	      0.57301374	      1.01924880	      0.32318519	      7.27888163	      2.21818773	      5.80239164	    -13.27983064	      5.95043687	    -12.38424309	      6.39124507	     19.04045226	      1.51897407	     -5.90261792	    -67.94669842	      4.80328139	     -8.54684625	      5.14447296	     -0.31091204	     -0.82745568	      4.19578330
      1.09983333	     -0.78984188	      1.88647624	     -0.77853007	      0.57759134	      1.01963361	      0.32348848	      6.88383666	      2.14541179	      5.93761871	    -13.01108191	      6.05133412	    -12.20030714	      6.51798837	     19.55515787	      1.52985974	     -6.13570593	    -67.55010676	      4.91289676	     -8.75663960	      5.02052053	     -0.33991086	     -0.88430372	      4.41210048
      1.10400000	     -0.77536106	      1.93840796	     -1.03150716	      0.58215470	      1.02001815	      0.32377891	      6.46437456	      2.07971937	      6.07980290	    -12.72726710	      6.11072670	    -12.03603917	      6.55869158	     20.04299853	      1.52502271	     -6.35556337	    -67.12745548	      5.05387267	     -8.91054517	      4.97997904	     -0.38552501	     -0.92228794	      4.46144010
      1.10816667	     -0.73221112	      2.00637415	     -1.27458437	      0.58671518	      1.02043270	      0.32403587	      6.01630134	      1.98950174	      6.19701853	    -12.45015607	      6.23507090	    -11.86458318	      6.65517854	     20.48389687	      1.54669569	     -6.55598392	    -66.65187580	      5.11351489	     -9.12728312	      4.87400053	     -0.47015454	     -0.99626518	      4.69681151
